<svg width="480" height="240" viewBox="0 0 480 240" fill="none" xmlns="http://www.w3.org/2000/svg">
<g clip-path="url(#clip0_11_47)">
<g clip-path="url(#clip1_11_47)">
<path d="M376.66 14.29L444.16 54.09L445.12 54.72L446.05 55.5L447.11 56.24C450.86 59.0495 453.952 62.6437 456.17 66.7717C458.388 70.8997 459.678 75.4619 459.95 80.14L460 82.18V155.02C460 166.77 453.57 177.58 443.77 182.95L375.73 225.97C365.93 231.35 354.07 231.35 343.73 225.65L276.78 183.28C271.71 180.502 267.478 176.415 264.527 171.444C261.575 166.473 260.012 160.801 260 155.02V82.17C260 71.11 265.7 60.89 274.76 55.12L344.26 14.14C354.26 8.61999 366.4 8.61999 376.66 14.29ZM360 70H340C337.348 70 334.804 71.0536 332.929 72.9289C331.054 74.8043 330 77.3478 330 80V160C330 162.652 331.054 165.196 332.929 167.071C334.804 168.946 337.348 170 340 170L341.17 169.93C343.603 169.643 345.845 168.474 347.473 166.644C349.1 164.813 350 162.449 350 160V130H360C367.956 130 375.587 126.839 381.213 121.213C386.839 115.587 390 107.957 390 100C390 92.0435 386.839 84.4129 381.213 78.7868C375.587 73.1607 367.956 70 360 70ZM360 90C362.652 90 365.196 91.0536 367.071 92.9289C368.946 94.8043 370 97.3478 370 100C370 102.652 368.946 105.196 367.071 107.071C365.196 108.946 362.652 110 360 110H350V90H360Z" fill="#6BB238"/>
</g>
<rect x="8" y="8" width="224" height="224" rx="8" fill="#FEF2F1"/>
<rect x="8" y="8" width="224" height="224" rx="8" stroke="#E61F16" stroke-width="16"/>
<path d="M52.5 60C52.5 58.0109 53.2902 56.1032 54.6967 54.6967C56.1032 53.2902 58.0109 52.5 60 52.5H75C76.9891 52.5 78.8968 53.2902 80.3033 54.6967C81.7098 56.1032 82.5 58.0109 82.5 60V90C82.5 91.9891 81.7098 93.8968 80.3033 95.3033C78.8968 96.7098 76.9891 97.5 75 97.5H60C58.0109 97.5 56.1032 96.7098 54.6967 95.3033C53.2902 93.8968 52.5 91.9891 52.5 90V60Z" stroke="#E61F16" stroke-width="10" stroke-linecap="round" stroke-linejoin="round"/>
<path d="M150 157.5C150 161.478 151.58 165.294 154.393 168.107C157.206 170.92 161.022 172.5 165 172.5C168.978 172.5 172.794 170.92 175.607 168.107C178.42 165.294 180 161.478 180 157.5C180 153.522 178.42 149.706 175.607 146.893C172.794 144.08 168.978 142.5 165 142.5C161.022 142.5 157.206 144.08 154.393 146.893C151.58 149.706 150 153.522 150 157.5Z" stroke="#E61F16" stroke-width="10" stroke-linecap="round" stroke-linejoin="round"/>
<path d="M105 67.5H157.5C178.207 67.5 195 91.005 195 120V157.5H180" stroke="#E61F16" stroke-width="10" stroke-linecap="round" stroke-linejoin="round"/>
<path d="M150 157.5H90" stroke="#E61F16" stroke-width="10" stroke-linecap="round" stroke-linejoin="round"/>
<path d="M150 67.5L161.25 120H195" stroke="#E61F16" stroke-width="10" stroke-linecap="round" stroke-linejoin="round"/>
<path d="M101.25 105H157.5" stroke="#E61F16" stroke-width="10" stroke-linecap="round" stroke-linejoin="round"/>
<path d="M120 67.5V105" stroke="#E61F16" stroke-width="10" stroke-linecap="round" stroke-linejoin="round"/>
<path d="M67.5 97.5V180" stroke="#E61F16" stroke-width="10" stroke-linecap="round" stroke-linejoin="round"/>
</g>
<defs>
<clipPath id="clip0_11_47">
<rect width="480" height="240" fill="white"/>
</clipPath>
<clipPath id="clip1_11_47">
<rect width="240" height="240" fill="white" transform="translate(240)"/>
</clipPath>
</defs>
</svg>
